<?xml version="1.0" standalone="no"?>
<!DOCTYPE svg PUBLIC "-//W3C//DTD SVG 20010904//EN"
 "http://www.w3.org/TR/2001/REC-SVG-20010904/DTD/svg10.dtd">
<svg version="1.0" xmlns="http://www.w3.org/2000/svg"
 width="700.000000pt" height="700.000000pt" viewBox="0 0 700.000000 700.000000"
 preserveAspectRatio="xMidYMid meet">
<metadata>
Created by potrace 1.11, written by Peter Selinger 2001-2013
</metadata>
<g transform="translate(0.000000,700.000000) scale(0.100000,-0.100000)"
fill="#000000" stroke="none">
<path d="M932 6767 c-52 -29 -57 -49 -62 -251 l-5 -188 -48 -18 c-115 -44
-219 -161 -252 -283 -41 -151 -1 -309 105 -421 49 -52 151 -116 184 -116 14 0
16 -17 16 -130 0 -102 -3 -130 -13 -130 -34 0 -138 -65 -186 -115 -111 -117
-149 -279 -102 -433 37 -123 151 -244 266 -282 l35 -12 0 -122 0 -122 -67 -29
c-88 -38 -169 -117 -214 -210 -32 -67 -34 -75 -34 -185 0 -108 2 -119 31 -180
52 -109 144 -195 247 -231 l37 -13 0 -67 0 -67 -64 -30 c-71 -33 -143 -94
-186 -158 -87 -126 -93 -324 -14 -460 47 -80 155 -167 247 -197 16 -6 17 -31
17 -334 0 -186 4 -343 10 -364 17 -62 50 -83 136 -87 l74 -4 0 -164 c0 -182 8
-219 56 -251 27 -17 94 -18 1430 -23 l1402 -5 -40 -68 c-40 -67 -41 -69 -84
-355 -24 -158 -45 -305 -45 -328 -3 -92 88 -144 166 -95 17 11 135 102 264
203 214 167 237 188 267 243 17 33 77 137 132 230 l100 170 329 5 c359 5 359
5 388 66 13 27 15 116 15 605 l0 572 420 718 c231 395 427 737 435 760 38 107
7 245 -73 327 -73 74 -128 97 -237 97 -106 0 -164 -23 -230 -90 -22 -23 -101
-145 -175 -273 l-135 -232 -5 1376 -5 1376 -33 29 -32 29 -433 0 -433 0 -74
76 c-41 42 -119 116 -172 165 l-98 89 -1617 0 c-1278 -1 -1623 -3 -1641 -13z
m3118 -558 l0 -351 29 -29 29 -29 351 0 351 0 0 -1645 0 -1646 -222 -379 -222
-380 -1633 0 -1633 0 0 280 c0 258 1 281 18 286 121 41 229 142 275 262 41
104 0 182 -97 182 -46 0 -87 -38 -110 -101 -9 -25 -32 -61 -51 -79 l-35 -34 0
376 0 376 30 7 c43 10 140 76 184 126 21 24 51 71 67 104 51 105 32 181 -50
206 -63 19 -100 -6 -147 -98 -21 -42 -49 -83 -61 -91 l-23 -14 0 423 0 424 70
33 c126 59 227 187 238 303 4 45 2 51 -32 85 -34 34 -40 36 -81 31 -58 -6 -72
-19 -105 -92 -15 -33 -42 -73 -59 -89 l-31 -30 0 426 0 426 65 31 c156 73 282
269 234 364 -46 90 -177 71 -207 -30 -12 -39 -66 -113 -83 -113 -5 0 -9 167
-9 415 l0 415 1475 0 1475 0 0 -351z m410 -4 l185 -185 -188 0 -187 0 0 185
c0 102 1 185 3 185 1 0 85 -83 187 -185z m-3590 -302 l0 -187 -31 30 c-91 85
-92 235 -2 319 15 14 29 25 30 25 2 0 3 -84 3 -187z m0 -1088 c0 -184 0 -185
-20 -173 -11 7 -33 30 -47 51 -32 46 -42 134 -23 192 10 31 73 115 86 115 2 0
4 -83 4 -185z m5199 -809 c58 -30 66 -104 20 -180 -17 -28 -33 -52 -34 -54 -3
-3 -130 68 -173 96 -17 12 47 124 80 140 32 15 74 14 107 -2z m-5204 -464 c-9
-10 -54 40 -75 83 -40 82 -17 205 48 256 l27 21 3 -178 c1 -97 0 -179 -3 -182z
m4986 87 c49 -28 89 -52 89 -53 0 -2 -11 -24 -25 -49 l-26 -45 -95 55 c-90 53
-94 56 -81 77 8 11 19 31 26 44 6 12 14 22 18 22 3 0 46 -23 94 -51z m-4981
-896 l0 -187 -31 30 c-47 44 -69 95 -69 159 0 63 17 104 63 153 17 17 32 32
34 32 2 0 3 -84 3 -187z m3299 -2056 c1 -4 -22 -26 -50 -49 l-52 -41 8 58 c11
88 11 88 55 62 20 -12 38 -26 39 -30z"/>
<path d="M1814 5570 c-36 -14 -64 -59 -64 -102 0 -32 7 -47 34 -74 l34 -34
1239 0 c1209 0 1239 1 1270 20 46 27 62 84 38 134 -34 71 58 66 -1302 65 -675
0 -1238 -4 -1249 -9z"/>
<path d="M1784 4886 c-56 -56 -44 -135 26 -171 25 -13 186 -15 1250 -15 1359
0 1271 -5 1305 67 22 45 8 101 -32 132 -26 21 -30 21 -1270 21 l-1245 0 -34
-34z"/>
<path d="M1799 4247 c-59 -39 -65 -124 -12 -173 l26 -24 1247 0 c1235 0 1248
0 1273 20 30 24 50 78 42 113 -4 14 -20 38 -36 53 l-30 29 -1238 3 -1238 2
-34 -23z"/>
<path d="M1784 3576 c-28 -28 -34 -42 -34 -76 0 -34 6 -48 34 -76 l34 -34
1239 0 c1203 0 1239 1 1269 19 20 12 37 34 44 55 16 49 -2 101 -44 127 -30 18
-66 19 -1269 19 l-1239 0 -34 -34z"/>
<path d="M1838 2953 c-92 -15 -118 -147 -39 -200 l34 -23 461 0 c445 0 462 1
494 20 46 29 66 78 49 126 -6 20 -25 47 -40 58 -28 21 -38 21 -480 22 -249 1
-464 -1 -479 -3z"/>
</g>
</svg>
